<svg xmlns="http://www.w3.org/2000/svg" viewBox="0 0 15663.41 706.01"><defs><style>.cls-1{fill:none;stroke:#0071bc;stroke-miterlimit:10;stroke-width:4px;}</style></defs><title>Track Lines</title><g id="Layer_2" data-name="Layer 2"><g id="Elements"><path class="cls-1" d="M15663.18,99.44s-1230.8,143.91-1464.66,167.9-950.46,93-1365.72,110.94-1271.27,24-1802,18-3897.76-27-3897.76-27L2749.6,328.8s-829-58.46-1353.73-136.42S187.57,18.48.18,2"/><path class="cls-1" d="M2844.79,488.46h470.73L4817.66,505l854.51,6,2019.34,36v.14H9199.64v-.14l2403.12,22.49s494.71,9,626.64,0,470.73-37.48,638.63-54,506.71-51,506.71-51l327.17-28.64"/><path class="cls-1" d="M48.14,6.76C189.05,16,493.39,97.94,644.8,144.41s572,137.48,572,137.48l235.3,34.17,1367.22,172.4s694.1,86.95,832,101.94,337.3,37.48,491.71,48,583.17,12,583.17,12l1080.88,13.49,1884.42,28.49H9199.64l2052.32,9s601.15,6,730.08,0,458.74-18,587.66-36,461.74-79.45,533.7-95.94,448.24-106.44,551.68-125.93S14128.81,385,14236.74,376s1380.71-146.92,1380.71-146.92"/></g></g></svg>