<svg xmlns="http://www.w3.org/2000/svg" viewBox="0 0 10330.04 449.88"><defs><style>.cls-1{fill:#fff;}</style></defs><title>allocations</title><g id="Layer_2" data-name="Layer 2"><g id="Elements"><rect class="cls-1" (click)="clickEvent()" id="spaceOne" x="5188.15" y="212.39" width="226.87" height="72.46"/><path d="M5414.51,212.89v71.45H5188.64V212.89h225.87m1-1H5187.64v73.45h227.87V211.89Z"/><rect class="cls-1" x="4882.32" y="215.38" width="226.87" height="72.46"/><path d="M5108.69,215.88v71.46H4882.82V215.88h225.87m1-1H4881.82v73.46h227.87V214.88Z"/><rect class="cls-1" x="4882.32" y="362.3" width="226.87" height="72.46"/><path d="M5108.69,362.8v71.46H4882.82V362.8h225.87m1-1H4881.82v73.46h227.87V361.8Z"/><rect class="cls-1" x="4683.68" y="285.09" width="72.46" height="226.87" transform="translate(4238.91 5110.75) rotate(-89)"/><path d="M4607.62,360.83l225.84,3.95-1.25,71.45-225.84-4,1.25-71.45m-1-1-1.29,73.45,227.84,4,1.28-73.44-227.83-4Z"/><rect class="cls-1" x="4412.34" y="280.6" width="72.46" height="226.87" transform="translate(3976.81 4835.03) rotate(-89)"/><path d="M4336.28,356.33l225.83,3.95-1.25,71.45-225.83-4,1.25-71.45m-1-1L4334,428.76l227.83,4,1.29-73.45-227.84-4Z"/><rect class="cls-1" x="4141" y="276.1" width="72.46" height="226.87" transform="translate(3714.67 4559.3) rotate(-89)"/><path d="M4064.93,351.83l225.84,4-1.25,71.44-225.84-4,1.25-71.45m-1-1-1.28,73.44,227.83,4,1.28-73.45-227.83-4Z"/><rect class="cls-1" x="3872.65" y="273.1" width="72.46" height="226.87" transform="translate(3454.05 4288.06) rotate(-89)"/><path d="M3796.59,348.84l225.83,4-1.25,71.44-225.83-4,1.25-71.44m-1-1-1.28,73.45,227.83,4,1.29-73.45-227.84-4Z"/><rect class="cls-1" x="3599.81" y="267.1" width="72.46" height="226.87" transform="translate(3191.97 4009.36) rotate(-89)"/><path d="M3523.74,342.84l225.84,4-1.25,71.45-225.84-3.95,1.25-71.45m-1-1-1.28,73.45,227.83,4,1.29-73.44-227.84-4Z"/><rect class="cls-1" x="3328.46" y="264.11" width="72.46" height="226.87" transform="translate(2928.35 3735.11) rotate(-89)"/><path d="M3252.4,339.84l225.83,4L3477,415.24l-225.83-3.95,1.25-71.45m-1-1-1.29,73.45,227.84,4,1.28-73.45-227.83-4Z"/><rect class="cls-1" x="3054.12" y="259.61" width="72.46" height="226.87" transform="translate(2663.3 3456.39) rotate(-89)"/><path d="M2978.06,335.34l225.83,4-1.25,71.45-225.83-3.95,1.25-71.45m-1-1-1.28,73.44,227.83,4,1.29-73.45-227.84-4Z"/><rect class="cls-1" x="2784.28" y="256.61" width="72.46" height="226.87" transform="translate(2401.19 3183.65) rotate(-89)"/><path d="M2708.21,332.35l225.84,3.95-1.25,71.44L2707,403.79l1.25-71.44m-1-1L2706,404.78l227.83,4,1.28-73.45-227.83-4Z"/><rect class="cls-1" x="2511.43" y="252.11" width="72.46" height="226.87" transform="translate(2137.62 2906.43) rotate(-89)"/><path d="M2435.37,327.85l225.83,3.95L2660,403.25l-225.83-3.95,1.25-71.45m-1-1-1.29,73.45,227.84,4,1.28-73.44-227.83-4Z"/><rect class="cls-1" x="2238.59" y="249.11" width="72.46" height="226.87" transform="translate(1872.54 2630.68) rotate(-89)"/><path d="M2162.53,324.85l225.83,3.95-1.25,71.45-225.83-3.95,1.25-71.45m-1-1-1.28,73.45,227.83,4,1.29-73.45-227.84-4Z"/><rect class="cls-1" x="1967.25" y="246.12" width="72.46" height="226.87" transform="translate(1608.93 2356.43) rotate(-89)"/><path d="M1891.18,321.85,2117,325.8l-1.25,71.45-225.84-3.95,1.25-71.45m-1-1-1.29,73.45,227.84,4,1.28-73.45-227.83-4Z"/><rect class="cls-1" x="1694.4" y="243.12" width="72.46" height="226.87" transform="translate(1343.86 2080.68) rotate(-89)"/><path d="M1618.34,318.85l225.83,3.95-1.25,71.45-225.83-3.95,1.25-71.45m-1-1-1.29,73.44,227.84,4,1.28-73.45-227.83-4Z"/><rect class="cls-1" x="1423.06" y="238.62" width="72.46" height="226.87" transform="matrix(0.04, -1, 1, 0.04, 1056.31, 1798.11)"/><path d="M1347.67,312.39l225.73,7.92-2.5,71.41-225.73-7.92,2.5-71.41m-1-1-2.57,73.41,227.72,8,2.58-73.41-227.73-8Z"/><rect class="cls-1" x="1148.72" y="222.13" width="72.46" height="226.87" transform="translate(753.04 1488.89) rotate(-85.28)"/><path d="M1075.33,290.67l225.11,18.58-5.88,71.21-225.11-18.58,5.88-71.21m-.91-1.08-6.05,73.21,227.1,18.74,6-73.21-227.09-18.74Z"/><rect class="cls-1" x="4686.68" y="138.18" width="72.46" height="226.87" transform="translate(4388.75 4969.4) rotate(-89)"/><path d="M4610.62,213.91l225.83,4-1.25,71.45-225.83-3.95,1.25-71.45m-1-1-1.29,73.44,227.84,4,1.28-73.45-227.83-4Z"/><rect class="cls-1" x="4415.34" y="133.68" width="72.46" height="226.87" transform="translate(4126.61 4693.68) rotate(-89)"/><path d="M4339.28,209.42l225.83,4-1.25,71.44L4338,280.86l1.25-71.44m-1-1L4337,281.85l227.83,4,1.29-73.45-227.84-4Z"/><rect class="cls-1" x="4143.99" y="129.18" width="72.46" height="226.87" transform="translate(3864.54 4417.96) rotate(-89)"/><path d="M4067.93,204.92l225.84,4-1.25,71.45-225.84-3.95,1.25-71.45m-1-1-1.29,73.45,227.84,4,1.28-73.44-227.83-4Z"/><rect class="cls-1" x="3872.65" y="123.19" width="72.46" height="226.87" transform="translate(3603.94 4140.76) rotate(-89)"/><path d="M3796.59,198.92l225.83,4-1.25,71.45-225.83-3.95,1.25-71.45m-1-1-1.28,73.44,227.83,4,1.29-73.45-227.84-4Z"/><rect class="cls-1" x="3599.81" y="118.69" width="72.46" height="226.87" transform="translate(3340.36 3863.54) rotate(-89)"/><path d="M3523.74,194.43l225.84,3.95-1.25,71.44-225.84-3.95,1.25-71.44m-1-1-1.28,73.44,227.83,4,1.29-73.45-227.84-4Z"/><rect class="cls-1" x="3328.46" y="114.19" width="72.46" height="226.87" transform="translate(3078.24 3587.82) rotate(-89)"/><path d="M3252.4,189.93l225.83,3.95L3477,265.33l-225.83-4,1.25-71.44m-1-1-1.29,73.45,227.84,4,1.28-73.44-227.83-4Z"/><rect class="cls-1" x="3057.12" y="109.69" width="72.46" height="226.87" transform="translate(2816.16 3312.1) rotate(-89)"/><path d="M2981.06,185.43l225.83,3.95-1.25,71.45-225.83-3.95,1.25-71.45m-1-1-1.28,73.45,227.83,4,1.29-73.45-227.84-4Z"/><rect class="cls-1" x="2784.28" y="105.2" width="72.46" height="226.87" transform="translate(2552.58 3034.88) rotate(-89)"/><path d="M2708.21,180.93l225.84,3.95-1.25,71.45L2707,252.38l1.25-71.45m-1-1L2706,253.36l227.83,4,1.28-73.45-227.83-4Z"/><rect class="cls-1" x="2434.23" y="180.9" width="226.87" height="72.46"/><path d="M2660.6,181.4v71.46H2434.73V181.4H2660.6m1-1H2433.73v73.46H2661.6V180.4Z"/><rect class="cls-1" x="2238.59" y="100.7" width="72.46" height="226.87" transform="translate(2020.94 2484.86) rotate(-89)"/><path d="M2162.53,176.44l225.83,3.95-1.25,71.44-225.83-4,1.25-71.44m-1-1-1.28,73.44,227.83,4,1.29-73.45-227.84-4Z"/><rect class="cls-1" x="1967.25" y="97.7" width="72.46" height="226.87" transform="translate(1757.32 2210.61) rotate(-89)"/><path d="M1891.18,173.44,2117,177.39l-1.25,71.44-225.84-4,1.25-71.44m-1-1-1.29,73.45,227.84,4,1.28-73.44-227.83-4Z"/><rect class="cls-1" x="1694.4" y="96.2" width="72.46" height="226.87" transform="translate(1490.75 1936.34) rotate(-89)"/><path d="M1618.34,171.94l225.83,3.95-1.25,71.45-225.83-4,1.25-71.44m-1-1-1.29,73.45,227.84,4,1.28-73.44-227.83-4Z"/><rect class="cls-1" x="1423.06" y="93.2" width="72.46" height="226.87" transform="translate(1227.16 1662.09) rotate(-89)"/><path d="M1347,168.94l225.84,3.95-1.25,71.45-225.84-4,1.25-71.45m-1-1-1.28,73.45,227.83,4,1.29-73.44-227.84-4Z"/><rect class="cls-1" x="1151.71" y="91.71" width="72.46" height="226.87" transform="translate(962.06 1389.31) rotate(-89)"/><path d="M1075.65,167.44l225.84,3.95-1.25,71.45-225.84-4,1.25-71.45m-1-1-1.29,73.45,227.84,4,1.28-73.45-227.83-4Z"/><rect class="cls-1" x="5459.49" y="212.39" width="226.87" height="72.46"/><path d="M5685.86,212.89v71.45H5460V212.89h225.87m1-1H5459v73.45h227.87V211.89Z"/><rect class="cls-1" x="5459.49" y="47.48" width="226.87" height="72.46"/><path d="M5685.86,48v71.46H5460V48h225.87m1-1H5459v73.46h227.87V47Z"/><rect class="cls-1" x="5186.65" y="47.48" width="226.87" height="72.46"/><path d="M5413,48v71.46H5187.15V48H5413m1-1H5186.15v73.46H5414V47Z"/><rect class="cls-1" x="4915.3" y="45.98" width="226.87" height="72.46"/><path d="M5141.67,46.48v71.46H4915.8V46.48h225.87m1-1H4914.8v73.46h227.87V45.48Z"/><rect class="cls-1" x="4642.46" y="44.48" width="226.87" height="72.46"/><path d="M4868.83,45v71.46H4643V45h225.87m1-1H4642v73.46h227.87V44Z"/><rect class="cls-1" x="4369.61" y="41.48" width="226.87" height="72.46"/><path d="M4596,42v71.46H4370.11V42H4596m1-1H4369.11v73.46H4597V41Z"/><rect class="cls-1" x="4096.77" y="39.98" width="226.87" height="72.46"/><path d="M4323.14,40.48v71.46H4097.27V40.48h225.87m1-1H4096.27v73.46h227.87V39.48Z"/><rect class="cls-1" x="3899.64" y="-38.72" width="72.46" height="226.87" transform="translate(3792.31 4008.67) rotate(-89)"/><path d="M3823.57,37,4049.41,41l-1.25,71.44-225.84-4L3823.57,37m-1-1-1.29,73.44,227.84,4L4050.42,40l-227.83-4Z"/><rect class="cls-1" x="3628.29" y="-41.72" width="72.46" height="226.87" transform="translate(3528.73 3734.42) rotate(-89)"/><path d="M3552.23,34,3778.06,38l-1.25,71.44-225.83-4L3552.23,34m-1-1L3550,106.45l227.83,4L3779.08,37l-227.83-4Z"/><rect class="cls-1" x="3355.45" y="-43.72" width="72.46" height="226.87" transform="translate(3262.66 3459.65) rotate(-89)"/><path d="M3279.38,32,3505.22,36,3504,107.41l-225.84-4L3279.38,32m-1-1-1.28,73.45,227.83,4L3506.24,35,3278.4,31Z"/><rect class="cls-1" x="3082.6" y="-46.72" width="72.46" height="226.87" transform="translate(2997.59 3183.91) rotate(-89)"/><path d="M3006.54,29,3232.38,33l-1.25,71.44-225.84-4L3006.54,29m-1-1-1.29,73.45,227.84,4L3233.39,32l-227.83-4Z"/><rect class="cls-1" x="2809.76" y="-50.72" width="72.46" height="226.87" transform="translate(2733.51 2907.17) rotate(-89)"/><path d="M2733.7,25,2959.53,29l-1.25,71.44-225.83-4L2733.7,25m-1-1-1.29,73.45,227.83,4L2960.55,28l-227.83-4Z"/><rect class="cls-1" x="2536.92" y="-52.72" width="72.46" height="226.87" transform="translate(2467.44 2632.41) rotate(-89)"/><path d="M2460.85,23,2686.69,27l-1.25,71.44-225.84-4L2460.85,23m-1-1-1.28,73.45,227.83,4L2687.71,26l-227.84-4Z"/><rect class="cls-1" x="2261.08" y="-58.72" width="72.46" height="226.87" transform="translate(2202.41 2350.71) rotate(-89)"/><path d="M2185,17,2410.85,21l-1.25,71.44-225.84-4L2185,17m-1-1-1.28,73.45,227.83,4L2411.86,20,2184,16Z"/><rect class="cls-1" x="1985.24" y="-58.72" width="72.46" height="226.87" transform="translate(1931.41 2074.91) rotate(-89)"/><path d="M1909.17,17,2135,21l-1.25,71.44-225.84-4L1909.17,17m-1-1-1.29,73.45,227.84,4L2136,20l-227.83-4Z"/><rect class="cls-1" x="1713.89" y="-58.72" width="72.46" height="226.87" transform="translate(1664.8 1803.61) rotate(-89)"/><path d="M1637.83,17,1863.66,21l-1.25,71.44-225.83-4L1637.83,17m-1-1-1.28,73.45,227.83,4L1864.68,20l-227.84-4Z"/><rect class="cls-1" x="1441.05" y="-61.72" width="72.46" height="226.87" transform="translate(1399.72 1527.86) rotate(-89)"/><path d="M1365,14,1590.82,18l-1.25,71.44-225.84-4L1365,14m-1-1-1.28,73.45,227.83,4L1591.84,17,1364,13Z"/><rect class="cls-1" x="1169.7" y="-64.72" width="72.46" height="226.87" transform="translate(1136.14 1253.61) rotate(-89)"/><path d="M1093.64,11l225.83,4-1.25,71.44-225.83-4L1093.64,11m-1-1-1.29,73.45,227.84,4L1320.49,14l-227.83-4Z"/><rect class="cls-1" x="898.36" y="-66.72" width="72.46" height="226.87" transform="translate(871.53 980.34) rotate(-89)"/><path d="M822.3,9l225.83,4-1.25,71.44-225.83-4L822.3,9m-1-1L820,81.45l227.83,4L1049.15,12,821.31,8Z"/><rect class="cls-1" x="625.52" y="-70.72" width="72.46" height="226.87" transform="translate(607.46 703.61) rotate(-89)"/><path d="M549.45,5,775.29,9,774,80.41l-225.84-4L549.45,5m-1-1-1.28,73.45,227.83,4L776.3,8,548.47,4Z"/><rect class="cls-1" x="349.67" y="-71.72" width="72.46" height="226.87" transform="translate(337.45 426.83) rotate(-89)"/><path d="M273.61,4,499.45,8,498.2,79.41l-225.84-4L273.61,4m-1-1-1.29,73.45,227.84,4L500.46,7,272.63,3Z"/><rect class="cls-1" x="78.33" y="-74.72" width="72.46" height="226.87" transform="translate(73.85 152.58) rotate(-89)"/><path d="M2.27,1,228.1,5l-1.25,71.44L1,72.46,2.27,1m-1-1L0,73.45l227.83,4L229.12,4,1.28,0Z"/><rect class="cls-1" x="5732.33" y="47.48" width="226.87" height="72.46"/><path d="M5958.7,48v71.46H5732.83V48H5958.7m1-1H5731.83v73.46H5959.7V47Z"/><rect class="cls-1" x="6005.18" y="50.48" width="226.87" height="72.46"/><path d="M6231.54,51v71.46H6005.68V51h225.86m1-1H6004.68v73.46h227.86V50Z"/><rect class="cls-1" x="6278.02" y="51.98" width="226.87" height="72.46"/><path d="M6504.39,52.48v71.46H6278.52V52.48h225.87m1-1H6277.52v73.46h227.87V51.48Z"/><rect class="cls-1" x="6550.86" y="53.48" width="226.87" height="72.46"/><path d="M6777.23,54v71.45H6551.36V54h225.87m1-1H6550.36v73.45h227.87V53Z"/><rect class="cls-1" x="6900.91" y="-22.23" width="72.46" height="226.87" transform="translate(6776.75 7027.09) rotate(-89.43)"/><path d="M6824.57,54.35l225.85,2.25-.71,71.46-225.86-2.25.72-71.46m-1-1-.74,73.46,227.86,2.27.73-73.46-227.85-2.27Z"/><rect class="cls-1" x="7173.75" y="-19.23" width="72.46" height="226.87" transform="translate(7043.78 7302.89) rotate(-89.43)"/><path d="M7097.41,57.35l225.86,2.25-.72,71.46L7096.7,128.8l.71-71.45m-1-1-.73,73.45,227.85,2.28.74-73.46-227.86-2.27Z"/><rect class="cls-1" x="7446.6" y="-17.73" width="72.46" height="226.87" transform="translate(7312.5 7577.2) rotate(-89.43)"/><path d="M7370.25,58.85l225.86,2.25-.71,71.46-225.86-2.26.71-71.45m-1-1-.73,73.45,227.86,2.28.73-73.46-227.86-2.27Z"/><rect class="cls-1" x="7717.94" y="-14.73" width="72.46" height="226.87" transform="translate(7578.03 7851.5) rotate(-89.43)"/><path d="M7641.6,61.85l225.86,2.25-.72,71.45-225.86-2.25.72-71.45m-1-1-.74,73.45,227.86,2.27.74-73.45-227.86-2.27Z"/><rect class="cls-1" x="7990.78" y="-11.74" width="72.46" height="226.87" transform="translate(7845.15 8127.3) rotate(-89.43)"/><path d="M7914.44,64.84,8140.3,67.1l-.71,71.45-225.86-2.25.71-71.46m-1-1-.73,73.45,227.86,2.27.73-73.45-227.86-2.27Z"/><rect class="cls-1" x="8263.63" y="-10.24" width="72.46" height="226.87" transform="translate(8113.88 8401.61) rotate(-89.43)"/><path d="M8187.28,66.34l225.86,2.26-.71,71.45-225.86-2.25.71-71.46m-1-1-.73,73.46,227.86,2.27.73-73.45-227.86-2.28Z"/><rect class="cls-1" x="8537.97" y="-8.74" width="72.46" height="226.87" transform="translate(8383.99 8677.42) rotate(-89.43)"/><path d="M8461.63,67.84l225.85,2.26-.71,71.45-225.86-2.25.72-71.46m-1-1-.74,73.46,227.86,2.27.73-73.45-227.85-2.28Z"/><rect class="cls-1" x="8733.61" y="68.47" width="226.87" height="72.46"/><path d="M8960,69v71.46H8734.11V69H8960m1-1H8733.11v73.46H8961V68Z"/><rect class="cls-1" x="9006.45" y="68.47" width="226.87" height="72.46"/><path d="M9232.82,69v71.46H9007V69h225.87m1-1H9006v73.46h227.87V68Z"/><rect class="cls-1" x="9279.29" y="63.97" width="226.87" height="72.46" transform="translate(-0.16 184.26) rotate(-1.12)"/><path d="M9504.94,62.26l1.4,71.45-225.82,4.43-1.41-71.45,225.83-4.43m1-1L9278.1,65.71l1.44,73.45,227.82-4.47-1.44-73.45Z"/><rect class="cls-1" x="9553.64" y="59.47" width="226.87" height="72.46" transform="translate(-0.02 189.62) rotate(-1.12)"/><path d="M9779.28,57.77l1.4,71.44-225.82,4.43-1.4-71.44,225.82-4.43m1-1-227.82,4.47,1.44,73.44,227.82-4.47-1.44-73.44Z"/><rect class="cls-1" x="9826.48" y="51.98" width="226.87" height="72.46" transform="translate(3.13 352.75) rotate(-2.03)"/><path d="M10051.51,48.49l2.54,71.42-225.73,8-2.54-71.41,225.73-8m1-1-227.72,8.08,2.6,73.42,227.73-8.09-2.61-73.41Z"/><rect class="cls-1" x="10100.82" y="38.49" width="226.87" height="72.46" transform="translate(11.33 561.49) rotate(-3.15)"/><path d="M10325.06,32.83l3.92,71.35-225.52,12.42-3.93-71.35,225.53-12.42m.94-1L10098.48,44.3l4,73.35L10330,105.13l-4-73.35Z"/><rect class="cls-1" x="5748.82" y="216.88" width="226.87" height="72.46"/><path d="M5975.19,217.38v71.46H5749.32V217.38h225.87m1-1H5748.32v73.46h227.87V216.38Z"/><rect class="cls-1" x="6033.66" y="216.88" width="226.87" height="72.46"/><path d="M6260,217.38v71.46H6034.16V217.38H6260m1-1H6033.16v73.46H6261V216.38Z"/><rect class="cls-1" x="6315.5" y="216.88" width="226.87" height="72.46"/><path d="M6541.87,217.38v71.46H6316V217.38h225.87m1-1H6315v73.46h227.87V216.38Z"/><rect class="cls-1" x="6665.55" y="142.68" width="72.46" height="226.87" transform="translate(6378.75 6954.99) rotate(-89.43)"/><path d="M6589.2,219.26l225.86,2.25-.71,71.45-225.86-2.25.71-71.45m-1-1-.73,73.45L6815.34,294l.73-73.45-227.86-2.27Z"/><rect class="cls-1" x="6938.39" y="145.67" width="72.46" height="226.87" transform="translate(6645.96 7230.79) rotate(-89.43)"/><path d="M6862.05,222.25l225.85,2.26-.71,71.45-225.86-2.25.72-71.46m-1-1-.74,73.46L7088.18,297l.73-73.45-227.85-2.28Z"/><rect class="cls-1" x="7211.23" y="148.67" width="72.46" height="226.87" transform="translate(6912.99 7506.59) rotate(-89.43)"/><path d="M7134.89,225.25l225.86,2.26L7360,299l-225.85-2.25.71-71.46m-1-1-.73,73.46L7361,300l.74-73.45-227.86-2.28Z"/><rect class="cls-1" x="7484.08" y="151.67" width="72.46" height="226.87" transform="translate(7180.21 7782.39) rotate(-89.43)"/><path d="M7407.73,228.25l225.86,2.25-.71,71.46L7407,299.71l.71-71.46m-1-1L7406,300.7,7633.87,303l.73-73.46-227.86-2.27Z"/><rect class="cls-1" x="7756.92" y="153.17" width="72.46" height="226.87" transform="translate(7448.73 8056.7) rotate(-89.43)"/><path d="M7680.57,229.75,7906.43,232l-.71,71.46-225.86-2.26.71-71.45m-1-1-.73,73.45,227.86,2.28.73-73.46-227.86-2.27Z"/><rect class="cls-1" x="8031.26" y="156.17" width="72.46" height="226.87" transform="translate(7717.44 8334) rotate(-89.43)"/><path d="M7954.92,232.75,8180.78,235l-.72,71.46L7954.2,304.2l.72-71.45m-1-1-.74,73.45,227.86,2.28.74-73.46-227.86-2.27Z"/><rect class="cls-1" x="8304.1" y="159.17" width="72.46" height="226.87" transform="translate(7984.45 8609.8) rotate(-89.43)"/><path d="M8227.76,235.75,8453.62,238l-.71,71.45-225.86-2.25.71-71.45m-1-1-.73,73.45,227.86,2.27.73-73.45-227.86-2.27Z"/><rect class="cls-1" x="8576.95" y="160.67" width="72.46" height="226.87" transform="translate(8253.19 8884.11) rotate(-89.43)"/><path d="M8500.6,237.25l225.86,2.25-.71,71.45-225.86-2.25.71-71.45m-1-1-.73,73.45L8726.74,312l.73-73.45-227.86-2.27Z"/><rect class="cls-1" x="8849.79" y="165.16" width="72.46" height="226.87" transform="translate(8518.69 9161.39) rotate(-89.43)"/><path d="M8773.45,241.74,8999.31,244l-.72,71.45-225.86-2.25.72-71.46m-1-1-.74,73.46,227.86,2.27.73-73.45-227.85-2.28Z"/><rect class="cls-1" x="9046.93" y="243.87" width="226.87" height="72.46"/><path d="M9273.3,244.37v71.46H9047.43V244.37H9273.3m1-1H9046.43v73.46H9274.3V243.37Z"/><rect class="cls-1" x="9318.27" y="236.37" width="226.87" height="72.46" transform="translate(-0.73 518.82) rotate(-3.15)"/><path d="M9542.51,230.72l3.92,71.35-225.52,12.41L9317,243.13l225.53-12.41m.94-1.05-227.53,12.52,4,73.35L9547.49,303l-4-73.34Z"/><rect class="cls-1" x="9592.61" y="215.38" width="226.87" height="72.46" transform="translate(12.75 808.98) rotate(-4.78)"/><path d="M9815.62,206.6l5.95,71.21-225.09,18.81-5.95-71.21,225.09-18.81m.91-1.07-227.08,19,6.12,73.2,227.08-19-6.12-73.2Z"/><rect class="cls-1" x="5748.82" y="362.3" width="226.87" height="72.46"/><path d="M5975.19,362.8v71.46H5749.32V362.8h225.87m1-1H5748.32v73.46h227.87V361.8Z"/><rect class="cls-1" x="6033.66" y="362.3" width="226.87" height="72.46"/><path d="M6260,362.8v71.46H6034.16V362.8H6260m1-1H6033.16v73.46H6261V361.8Z"/><rect class="cls-1" x="6315.5" y="362.3" width="226.87" height="72.46"/><path d="M6541.87,362.8v71.46H6316V362.8h225.87m1-1H6315v73.46h227.87V361.8Z"/><rect class="cls-1" x="6665.55" y="288.09" width="72.46" height="226.87" transform="translate(6233.34 7098.96) rotate(-89.43)"/><path d="M6589.2,364.67l225.86,2.26-.71,71.45-225.86-2.25.71-71.46m-1-1-.73,73.46,227.86,2.27.73-73.45-227.86-2.28Z"/><rect class="cls-1" x="6861.18" y="366.8" width="226.87" height="72.46"/><path d="M7087.55,367.3v71.45H6861.68V367.3h225.87m1-1H6860.68v73.45h227.87V366.3Z"/><rect class="cls-1" x="7134.03" y="368.3" width="226.87" height="72.46"/><path d="M7360.4,368.8v71.45H7134.53V368.8H7360.4m1-1H7133.53v73.45H7361.4V367.8Z"/><rect class="cls-1" x="7406.87" y="368.3" width="226.87" height="72.46"/><path d="M7633.24,368.8v71.45H7407.37V368.8h225.87m1-1H7406.37v73.45h227.87V367.8Z"/><rect class="cls-1" x="7679.71" y="369.8" width="226.87" height="72.46"/><path d="M7906.08,370.3v71.45H7680.21V370.3h225.87m1-1H7679.21v73.45h227.87V369.3Z"/><rect class="cls-1" x="7954.06" y="371.29" width="226.87" height="72.46"/><path d="M8180.42,371.79v71.46H7954.56V371.79h225.86m1-1H7953.56v73.46h227.86V370.79Z"/><rect class="cls-1" x="8226.9" y="371.29" width="226.87" height="72.46"/><path d="M8453.27,371.79v71.46H8227.4V371.79h225.87m1-1H8226.4v73.46h227.87V370.79Z"/><rect class="cls-1" x="8576.95" y="297.09" width="72.46" height="226.87" transform="translate(8116.77 9019.17) rotate(-89.43)"/><path d="M8500.6,373.67l225.86,2.25-.71,71.46-225.86-2.26.71-71.45m-1-1-.73,73.45,227.86,2.28.73-73.46-227.86-2.27Z"/><rect class="cls-1" x="8849.79" y="298.59" width="72.46" height="226.87" transform="translate(8385.28 9293.48) rotate(-89.43)"/><path d="M8773.45,375.17l225.86,2.25-.72,71.45-225.86-2.25.72-71.45m-1-1-.74,73.45,227.86,2.27.73-73.45-227.85-2.27Z"/><rect class="cls-1" x="9046.93" y="371.29" width="226.87" height="72.46" transform="translate(-8.69 325.01) rotate(-2.03)"/><path d="M9272,367.81l2.53,71.42-225.73,8-2.53-71.41,225.73-8m1-1-227.72,8.08,2.6,73.41,227.73-8.08-2.61-73.41Z"/><rect class="cls-1" x="9318.27" y="359.3" width="226.87" height="72.46" transform="translate(-7.48 518.97) rotate(-3.15)"/><path d="M9542.51,353.65l3.92,71.35-225.52,12.41L9317,366.06l225.53-12.41m.94-1.06-227.53,12.53,4,73.35,227.53-12.53-4-73.35Z"/><rect class="cls-1" x="9594.11" y="336.81" width="226.87" height="72.46" transform="translate(17.62 1066.51) rotate(-6.29)"/><path d="M9815.88,325.15l7.84,71-224.51,24.76-7.83-71,224.5-24.76m.89-1.11-226.5,25,8.06,73,226.49-25-8-73Z"/><rect class="cls-1" x="5188.15" y="362.3" width="226.87" height="72.46"/><path d="M5414.51,362.8v71.46H5188.64V362.8h225.87m1-1H5187.64v73.46h227.87V361.8Z"/><rect class="cls-1" x="5459.49" y="362.3" width="226.87" height="72.46"/><path d="M5685.86,362.8v71.46H5460V362.8h225.87m1-1H5459v73.46h227.87V361.8Z"/></g></g></svg>